<svg width="134" height="141" viewBox="0 0 134 141" xmlns="http://www.w3.org/2000/svg" xmlns:xlink="http://www.w3.org/1999/xlink"><defs><path id="a" d="M0 140.166h133.552V0H0z"/></defs><g fill="none" fill-rule="evenodd"><path d="M117.7185 68.166c0-1.65-1.351-3-3-3h-104c-1.65 0-3 1.35-3 3v63c0 1.65 1.35 3 3 3h104c1.649 0 3-1.35 3-3v-63Z" fill="#E4E5E7"/><mask id="b" fill="#fff"><use xlink:href="#a"/></mask><path fill="#FFF" mask="url(#b)" d="M14.718 123.166h96v-52h-96z"/><path d="M76.4763 62.1504c0 9.498-6.16 17.197-13.758 17.197-7.597 0-13.758-7.699-13.758-17.197 0-9.497 6.161-17.197 13.758-17.197 7.598 0 13.758 7.7 13.758 17.197" fill="#FFF" mask="url(#b)"/><path d="M76.4763 62.1504c0 9.498-6.16 17.197-13.758 17.197-7.597 0-13.758-7.699-13.758-17.197 0-9.497 6.161-17.197 13.758-17.197 7.598 0 13.758 7.7 13.758 17.197Z" stroke="#000" stroke-width="2" mask="url(#b)"/><path d="M47.4705 59.373h15.366s7.683 0 7.683-7.682c0 0 0 7.682 7.683 7.682v-7.682s0-7.684-7.683-7.684c0 0 0-3.841-3.842-3.841h-7.683s-11.524.576-11.524 11.525v7.682Z" fill="#000" mask="url(#b)"/><path d="M80.6033 88.7715h-35.771c-2.943 0-5.331 2.321-5.331 5.182v28.247h46.433v-28.247c0-2.861-2.387-5.182-5.331-5.182" fill="#C4C4C4" mask="url(#b)"/><path d="M80.6033 88.7715h-35.771c-2.943 0-5.331 2.321-5.331 5.182v28.247h46.433v-28.247c0-2.861-2.387-5.182-5.331-5.182Z" stroke="#000" stroke-width="2" mask="url(#b)"/><path fill="#C4C4C4" mask="url(#b)" d="M53.862 91.408H71.57v-4H53.862z"/><path fill="#FFF" mask="url(#b)" d="m55.8396 87.7715 6.879 27.516 6.879-27.516z"/><path stroke="#FFF" mask="url(#b)" d="m55.8396 87.7715 6.879 27.516 6.879-27.516z"/><path stroke="#000" stroke-width="2" mask="url(#b)" d="M52.8592 85.126v9.859l9.859-4.929 9.859 4.929v-9.859zM56.241 85.126v-8.049M69.1951 85.126v-8.049"/><path fill="#C4C4C4" mask="url(#b)" d="M40.519 123.204h44.416v-4.466H40.519z"/><path d="M40.1531 17.334c-1.083-6.933-7.062-12.242-14.299-12.242-6.428 0-11.868 4.188-13.765 9.98-.778-.202-1.588-.32-2.428-.32-5.336 0-9.661 4.325-9.661 9.66s4.325 9.661 9.661 9.661h30.267c4.626 0 8.375-3.75 8.375-8.376 0-4.548-3.629-8.242-8.15-8.363" fill="#E4E5E7" mask="url(#b)"/><path stroke="#C4C4C4" stroke-width="2" stroke-dasharray="2,4" mask="url(#b)" d="M77.7176 2.457h40"/><path d="M35.718 57.776h2v-2.5h-2v2.5Zm-5 0h2v-5h-2v5Zm-5 0h2v-7h-2v7Zm-5 0h2v-15h-2v15Zm-5 0h2v-11.25h-2v11.25Zm-5 0h2v-7h-2v7Zm-5 0h2v-10h-2v10Zm-5 0h2v-5h-2v5Zm118.43-55.319c0 1.357 1.1 2.458 2.457 2.458 1.358 0 2.457-1.101 2.457-2.458 0-1.356-1.099-2.457-2.457-2.457-1.357 0-2.457 1.101-2.457 2.457ZM1.718 90.641h10v-2h-10v2Zm0-5h20v-2h-20v2Zm0-5h30v-2h-30v2Zm-1-45.74h2v-3.625h-2v3.625Zm5 0h2v-6.25h-2v6.25Zm5 0h2v-4.5h-2v4.5Zm110 0h2v-3.625h-2v3.625Zm-10 0h2v-15h-2v15Zm5 0h2v-4.5h-2v4.5Zm-20 0h2v-3.625h-2v3.625Zm-80 0h2v-10h-2v10Zm5 0h2v-5h-2v5Zm5 0h2v-15h-2v15Zm5 0h2v-10h-2v10Zm5 0h2v-5h-2v5Zm5 0h2v-10h-2v10Zm5 0h2v-5h-2v5Zm5 0h2v-10h-2v10Zm5 0h2v-15h-2v15Zm5 0h2v-12.5h-2v12.5Zm5 0h2v-25h-2v25Zm5 0h2v-20h-2v20Zm5 0h2v-10h-2v10Zm5 0h2v-15h-2v15Zm5 0h2v-10h-2v10Zm20 0h2v-10h-2v10Zm-5 0h2v-4.5h-2v4.5Zm-10 0h2v-7.25h-2v7.25Zm20 72.5h13.834v-2h-13.834v2Zm-6.166-5h20v-2h-20v2Zm-10.5-24.568h27.667V60.166H94.052v17.667Zm-2 2h31.667V58.166H92.052v21.667Zm11.833-12h27.667V50.166h-27.667v17.667Zm-2 2h31.667V48.166h-31.667v21.667Zm-98.09 60.333c.299 2.356 1.761 8 8.924 8h100c.351-.002 8.336-.13 8.96-8H3.795Zm108.924 10h-100c-10.874 0-11-10.89-11-11v-1h122v1c0 10.874-10.89 11-11 11Z" fill="#443580" mask="url(#b)"/></g></svg>